<?xml version="1.0" standalone="no"?>
<!DOCTYPE svg PUBLIC "-//W3C//DTD SVG 20010904//EN"
 "http://www.w3.org/TR/2001/REC-SVG-20010904/DTD/svg10.dtd">
<svg version="1.0" xmlns="http://www.w3.org/2000/svg"
 width="433.000000pt" height="577.000000pt" viewBox="0 0 433.000000 577.000000"
 preserveAspectRatio="xMidYMid meet">

<g transform="translate(0.000000,577.000000) scale(0.100000,-0.100000)"
fill="#000000" stroke="none">
<path d="M2013 5159 c-23 -4 -53 -15 -67 -24 -14 -10 -33 -14 -42 -11 -24 9
-70 -20 -95 -61 -12 -21 -54 -69 -93 -108 -67 -66 -80 -87 -120 -192 -15 -40
-28 -135 -17 -129 3 2 4 -18 2 -46 -1 -27 0 -64 3 -82 7 -39 51 -87 75 -84 22
4 27 -38 7 -58 -12 -12 -15 -28 -11 -66 3 -28 9 -56 14 -62 5 -6 11 -35 13
-63 4 -46 2 -54 -17 -67 -31 -20 -42 -91 -19 -117 10 -11 22 -19 28 -19 7 0
17 -37 24 -89 18 -131 105 -399 149 -457 12 -17 21 -33 18 -36 -3 -2 11 -23
30 -45 19 -22 31 -44 27 -48 -4 -5 -2 -5 5 -1 7 4 17 -1 24 -12 8 -13 19 -17
32 -14 12 3 18 1 14 -5 -3 -5 12 -20 33 -34 22 -13 40 -27 40 -31 0 -5 10 -8
23 -8 13 0 32 -7 43 -15 10 -8 30 -15 43 -15 19 0 21 -3 12 -14 -8 -10 -9 -16
-1 -21 18 -11 0 -25 -32 -25 -27 0 -29 -3 -24 -24 3 -12 3 -26 -1 -29 -8 -8
-63 24 -63 37 0 5 -3 6 -7 3 -3 -4 -17 3 -30 15 -13 12 -23 18 -23 14 0 -9
-64 36 -90 63 -34 35 -99 122 -105 141 -6 20 -7 20 -27 -6 -30 -37 -236 -127
-498 -217 -207 -71 -391 -137 -408 -146 -44 -24 -115 -109 -146 -176 -18 -38
-57 -139 -85 -223 -52 -152 -52 -154 -61 -325 -5 -95 -20 -237 -34 -317 -25
-142 -78 -456 -111 -655 -49 -296 -54 -364 -35 -480 5 -33 17 -121 25 -195 20
-174 59 -361 86 -418 18 -35 32 -49 73 -68 28 -13 71 -26 96 -30 52 -8 70 -19
70 -45 0 -19 38 -19 1428 -19 l1429 0 22 24 c52 55 140 344 160 526 41 380 37
704 -15 1140 -14 118 -29 310 -34 425 -10 222 -41 435 -66 456 -7 6 -34 52
-58 103 -71 145 -84 158 -248 236 -79 37 -231 107 -338 155 -308 138 -400 183
-400 197 -1 8 -6 6 -15 -5 -12 -17 -13 -13 -10 35 6 86 19 130 64 204 23 38
52 104 65 146 19 60 33 85 64 115 64 62 98 209 79 343 -6 42 -6 41 8 -10 8
-30 12 -68 9 -85 -11 -52 3 -23 19 41 12 47 14 76 7 124 -5 39 -5 70 0 81 6
11 6 19 0 21 -13 4 17 96 40 123 23 27 35 103 18 122 -10 12 -8 18 11 33 20
15 23 23 17 54 -4 20 -19 51 -34 69 -15 17 -35 49 -45 70 -14 30 -21 37 -31
28 -17 -14 -42 13 -44 49 -1 14 -6 39 -11 55 -9 29 -9 29 -10 -12 -1 -24 -5
-43 -10 -43 -11 0 -25 39 -18 47 3 3 1 10 -4 17 -22 26 -76 125 -71 130 3 3 0
6 -7 6 -7 0 -10 4 -7 8 13 21 -282 118 -384 126 -134 11 -284 14 -327 5z
m-140 -286 c-13 -2 -23 -7 -23 -11 0 -4 -15 -7 -33 -8 l-32 -1 30 13 c17 7 41
13 55 12 23 -1 23 -1 3 -5z m102 -193 c3 -5 19 -10 36 -10 18 0 29 -5 29 -14
0 -8 6 -21 13 -28 19 -19 40 -75 33 -87 -3 -5 -1 -33 5 -62 9 -39 9 -54 0 -57
-20 -7 -12 -32 11 -32 20 0 21 -2 7 -15 -20 -21 -136 -30 -157 -13 -12 10 -16
10 -19 1 -3 -7 -11 -13 -19 -13 -8 0 -14 -6 -15 -12 0 -7 -3 -6 -7 3 -6 14 -9
15 -20 3 -9 -10 -9 -14 -1 -14 9 0 9 -3 0 -14 -9 -11 -9 -15 1 -19 8 -3 6 -6
-5 -6 -10 -1 -15 -5 -12 -11 3 -5 0 -10 -7 -11 -7 0 0 -6 15 -13 16 -7 29 -14
29 -17 1 -2 -15 -20 -35 -40 -48 -48 -48 -62 1 -56 44 6 82 -22 82 -60 0 -13
7 -26 15 -29 8 -4 15 -14 15 -24 0 -30 58 -19 122 23 59 40 65 48 72 109 8 58
23 80 46 68 16 -9 19 -24 22 -113 2 -56 1 -120 -2 -142 -3 -22 -2 -52 3 -67 5
-17 4 -34 -3 -47 -8 -16 -8 -27 1 -43 l12 -23 -24 22 c-41 37 -71 42 -97 17
-25 -24 -19 -34 31 -50 32 -11 37 -25 11 -39 -11 -5 -21 -13 -24 -17 -6 -7
-59 -30 -75 -33 -20 -2 -64 17 -69 30 -3 8 12 40 33 72 47 71 58 102 40 114
-16 9 -59 1 -75 -16 -21 -21 -37 -137 -21 -147 9 -6 8 -11 -3 -18 -8 -5 -15
-15 -16 -22 0 -7 -4 -21 -7 -30 -4 -10 -10 -26 -13 -35 -10 -27 -4 -87 9 -95
19 -12 27 -9 52 18 16 17 30 24 41 20 9 -3 22 0 28 8 8 10 19 11 42 5 26 -7
31 -14 32 -43 1 -22 -4 -36 -13 -40 -8 -3 -15 -12 -15 -21 0 -18 27 -64 47
-81 17 -14 6 -45 -12 -37 -8 2 -23 -2 -35 -10 -39 -27 -166 20 -145 53 4 7 1
16 -6 21 -9 5 -16 3 -21 -9 -6 -15 -7 -15 -7 2 -1 13 -6 17 -21 13 -24 -6 -42
21 -38 59 2 18 -3 30 -17 38 -28 16 -35 27 -35 61 0 18 -7 35 -18 41 -9 6 -18
23 -20 38 -2 25 -9 60 -46 231 -31 138 -13 354 47 580 l34 129 64 32 c71 35
85 39 94 24z m719 -296 c9 -3 16 -13 16 -22 0 -8 7 -23 16 -33 9 -10 22 -44
30 -76 7 -32 18 -79 24 -106 11 -45 10 -150 -3 -192 -23 -77 -68 -189 -83
-206 -18 -20 -49 -22 -49 -4 -1 6 -9 25 -19 44 -14 27 -16 39 -7 53 6 10 11
26 11 37 0 10 7 21 15 25 8 3 14 11 13 18 -2 7 5 12 16 11 12 -1 15 2 8 9 -10
10 0 58 18 83 13 19 11 102 -2 136 -8 19 -13 60 -12 94 2 51 -1 62 -22 84 -19
18 -22 27 -13 37 13 16 20 17 43 8z m-453 -47 c-8 -8 -11 -7 -11 4 0 20 13 34
18 19 3 -7 -1 -17 -7 -23z m-289 -177 c3 -16 3 -30 2 -30 -2 0 -15 5 -30 10
-26 10 -26 11 -9 30 25 27 32 25 37 -10z m438 -269 c7 -17 10 -36 7 -43 -4 -8
-8 -5 -12 9 -4 12 -16 25 -27 29 -15 4 -17 9 -7 20 17 21 25 17 39 -15z m480
10 c0 -5 -9 -19 -21 -32 -16 -19 -19 -20 -15 -6 3 10 6 25 6 33 0 8 7 14 15
14 8 0 15 -4 15 -9z m-685 -100 c-3 -6 -11 -11 -17 -11 -6 0 -6 6 2 15 14 17
26 13 15 -4z m-82 -126 c28 4 27 3 -8 -9 -46 -15 -50 -14 -40 11 5 12 9 14 12
6 3 -7 17 -10 36 -8z m108 -65 c5 0 9 -4 9 -10 0 -5 -11 -10 -25 -10 -16 0
-25 6 -25 16 0 11 5 14 16 10 9 -3 20 -6 25 -6z m64 -10 c-3 -5 -15 -10 -26
-10 -10 0 -19 5 -19 10 0 6 12 10 26 10 14 0 23 -4 19 -10z m-143 -955 c3 -13
1 -22 -3 -19 -9 5 -13 44 -5 44 2 0 6 -11 8 -25z m45 -357 c-3 -7 -5 -2 -5 12
0 14 2 19 5 13 2 -7 2 -19 0 -25z m-10 -430 c-3 -8 -6 -5 -6 6 -1 11 2 17 5
13 3 -3 4 -12 1 -19z m969 -402 c3 -8 -2 -29 -12 -48 -19 -37 -92 -108 -111
-108 -7 0 -13 -4 -13 -9 0 -5 -7 -12 -16 -15 -29 -11 -7 40 37 85 22 23 38 47
35 55 -3 8 -2 13 2 11 4 -1 18 8 32 21 28 26 39 28 46 8z m134 -94 c0 -12 -3
-12 -15 -2 -13 10 -15 9 -15 -8 0 -12 -5 -24 -12 -28 -8 -5 -9 -2 -5 10 5 12
3 16 -5 14 -7 -3 -14 -17 -16 -31 -2 -15 -10 -27 -18 -27 -8 0 -13 -3 -11 -8
3 -11 -34 -47 -68 -64 -16 -8 -43 -22 -60 -31 -34 -19 -45 -14 -22 10 15 18
17 22 17 44 0 5 5 7 10 4 6 -3 10 1 10 9 0 9 3 16 8 16 4 0 12 10 17 23 6 12
17 21 24 19 7 -1 10 1 7 6 -6 10 38 54 71 71 12 6 29 8 39 4 13 -5 15 -3 9 8
-5 8 1 5 13 -5 12 -11 22 -26 22 -34z m36 -124 c4 -6 3 -8 -3 -5 -6 4 -13 0
-17 -8 -3 -8 -12 -15 -21 -15 -8 0 -15 -4 -15 -10 0 -5 -8 -10 -17 -10 -15 0
-16 -2 -3 -10 13 -9 13 -10 0 -10 -8 0 -28 -12 -44 -27 l-29 -27 21 -14 c25
-17 29 -42 6 -42 -8 0 -12 5 -9 10 3 6 1 11 -4 11 -6 1 -17 2 -23 3 -7 1 -16
-2 -19 -8 -4 -5 -17 0 -29 12 l-21 20 38 28 c21 16 62 48 91 72 53 42 85 52
98 30z m-386 -27 c0 -6 -5 -13 -10 -16 -6 -4 -10 -12 -9 -18 3 -24 -1 -35 -17
-41 -12 -5 -15 0 -13 27 2 17 7 38 12 45 11 14 37 16 37 3z m26 -116 c-3 -13
-11 -37 -18 -52 -6 -15 -10 -32 -9 -36 2 -13 -19 -47 -29 -47 -12 0 -13 37 -1
44 4 3 11 25 15 48 7 43 21 68 38 68 6 0 7 -11 4 -25z m164 -51 c0 -21 -4 -25
-22 -22 -15 2 -24 11 -26 26 -3 18 1 22 22 22 21 0 26 -5 26 -26z m208 -6 c2
-19 -6 -35 -30 -60 -47 -46 -84 -69 -102 -62 -26 10 -19 30 35 94 38 46 56 60
72 58 15 -2 23 -11 25 -30z m-312 -34 c-3 -8 -1 -14 4 -14 6 0 9 -15 7 -33
l-2 -32 -42 10 c-37 8 -43 13 -43 36 0 29 14 44 45 51 26 6 38 -1 31 -18z
m-89 -96 c-3 -8 -6 -5 -6 6 -1 11 2 17 5 13 3 -3 4 -12 1 -19z m-773 -313 c-7
-16 -24 -21 -24 -6 0 8 7 13 27 20 1 1 0 -6 -3 -14z m446 -35 c0 -5 -4 -10 -9
-10 -6 0 -13 5 -16 10 -3 6 1 10 9 10 9 0 16 -4 16 -10z m-380 -4 c0 -3 -4 -8
-10 -11 -5 -3 -10 -1 -10 4 0 6 5 11 10 11 6 0 10 -2 10 -4z m180 -10 c0 -2
-7 -9 -15 -16 -13 -11 -14 -10 -9 4 5 14 24 23 24 12z m-377 -119 c4 3 7 0 7
-7 0 -7 8 -23 18 -34 13 -15 10 -14 -15 4 -17 14 -34 31 -38 39 -4 11 -2 11 8
3 8 -7 17 -9 20 -5z m67 -39 c0 6 5 12 10 12 6 0 5 -8 -2 -20 -12 -19 -14 -19
-25 -3 -7 9 -13 24 -13 32 1 10 6 7 15 -9 8 -14 14 -19 15 -12z m50 -33 c-9
-11 -16 -13 -23 -6 -7 7 -6 15 3 26 9 11 16 13 23 6 7 -7 6 -15 -3 -26z m50 4
c0 -5 -4 -9 -10 -9 -5 0 -10 7 -10 16 0 8 5 12 10 9 6 -3 10 -10 10 -16z m100
-50 c0 -11 -4 -17 -10 -14 -5 3 -10 15 -10 26 0 11 5 17 10 14 6 -3 10 -15 10
-26z m50 -8 c0 -6 -4 -13 -10 -16 -5 -3 -10 1 -10 9 0 9 5 16 10 16 6 0 10 -4
10 -9z m17 -43 c-3 -7 -5 -2 -5 12 0 14 2 19 5 13 2 -7 2 -19 0 -25z"/>
<path d="M1905 3690 c-3 -5 -1 -10 4 -10 6 0 11 5 11 10 0 6 -2 10 -4 10 -3 0
-8 -4 -11 -10z"/>
<path d="M2672 3760 c0 -14 2 -19 5 -12 2 6 2 18 0 25 -3 6 -5 1 -5 -13z"/>
<path d="M3033 4495 c0 -22 2 -30 4 -17 2 12 2 30 0 40 -3 9 -5 -1 -4 -23z"/>
<path d="M1610 4185 c0 -30 4 -55 9 -55 12 0 26 84 16 99 -15 25 -25 7 -25
-44z"/>
</g>
</svg>
